<svg height="512" viewBox="0 0 64 64" width="512" xmlns="http://www.w3.org/2000/svg">
    <linearGradient id="a" gradientUnits="userSpaceOnUse" x1="32" x2="32" y1="63" y2="1">
        <stop offset="0" stop-color="#9f2fff"/>
        <stop offset="1" stop-color="#0bb1d3"/>
    </linearGradient>
    <path d="M8 63c.999 0 1.911-.588 2.324-1.496L15 51.217V8c0-3.859-3.141-7-7-7S1 4.141 1 8v43.217l4.676 10.286A2.558 2.558 0 008 63zm.504-2.323c-.18.393-.828.394-1.008-.001l-4.253-9.358 2.511-1.883L8 52.803l2.246-3.368 2.511 1.883zM13 49l-2-1.5V13h2zm-4-1.303l-1 1.501-1-1.501V13h2zM5 47.5L3 49V13h2zM8 3c2.757 0 5 2.243 5 5v3H3V8c0-2.757 2.243-5 5-5zm21.535 60c.502 0 .988-.147 1.406-.426L36.303 59H50c2.757 0 5-2.243 5-5V38c0-2.757-2.243-5-5-5H24c-2.757 0-5 2.243-5 5v16c0 2.757 2.243 5 5 5h3v1.465A2.539 2.539 0 0029.535 63zM24 57c-1.654 0-3-1.346-3-3V38c0-1.654 1.346-3 3-3h26c1.654 0 3 1.346 3 3v16c0 1.654-1.346 3-3 3H35.697l-5.865 3.91c-.332.221-.832-.044-.832-.445V57zM58 1H32c-2.757 0-5 2.243-5 5v16c0 2.757 2.243 5 5 5h3v1.465A2.539 2.539 0 0037.535 31c.502 0 .988-.147 1.406-.426L44.303 27H58c2.757 0 5-2.243 5-5V6c0-2.757-2.243-5-5-5zm-5 2h4v4.132l-2-1.334-2 1.334zm8 19c0 1.654-1.346 3-3 3H43.697l-5.865 3.91c-.332.22-.832-.044-.832-.445V25h-5c-1.654 0-3-1.346-3-3V6c0-1.654 1.346-3 3-3h19v7.868l4-2.666 4 2.666V3.184c1.161.414 2 1.514 2 2.816zm-5.65-1.519a.685.685 0 01-1.35-.166V15c0-2.206-1.794-4-4-4s-4 1.794-4 4v4c0 2.206 1.794 4 4 4a3.963 3.963 0 002.614-.997 2.67 2.67 0 004.675-1.037l.681-2.724-1.939-.484zM50 21c-1.103 0-2-.897-2-2v-4c0-1.103.897-2 2-2s2 .897 2 2v4c0 1.103-.897 2-2 2zM36.208 5l-4.182 17.771 1.947.459L35.439 17h5.121l1.466 6.229 1.947-.459L39.792 5zm-.298 10l1.882-8h.416l1.882 8zM51 39H23v-2h28zm-2 2h2v2h-2zm-4 2v-2h2v2zm-2 0H23v-2h20zm8 4H23v-2h28zm-26 4h-2v-2h2zm2-2h24v2H27zm24 6H23v-2h28z" fill="url(#a)"/>
</svg>
