<svg xmlns="http://www.w3.org/2000/svg" width="500" height="300" viewBox="0 0 556.669 556.669">
    <path d="M545.782 241.477l-45.257-60.229-13.474-74.123a54.108 54.108 0 00-45.696-43.957L366.76 52.584 304.829 9.699c-15.57-10.776-35.216-12.679-52.548-5.096a54.078 54.078 0 00-10.843 6.33l-60.232 45.262-74.125 13.474a54.516 54.516 0 00-12.019 3.664C77.986 80.797 65.75 96.906 63.13 115.364l-10.579 74.588L9.655 251.9a54.096 54.096 0 001.23 63.391l45.265 60.222 13.463 74.125a54.111 54.111 0 0045.702 43.957l74.596 10.584 61.93 42.885c15.327 10.61 35.459 12.572 52.547 5.101a54.204 54.204 0 0010.854-6.333l60.217-45.267 74.14-13.474a54.476 54.476 0 0012.003-3.661c17.083-7.467 29.319-23.57 31.938-42.036l10.574-74.591 42.896-61.94a54.078 54.078 0 00-1.228-63.386zM278.338 476.408c-109.222 0-198.074-88.852-198.074-198.068 0-109.22 88.857-198.071 198.074-198.071 109.212 0 198.068 88.851 198.068 198.071 0 109.217-88.851 198.068-198.068 198.068z"/>
    <path d="M281.538 294.154l-54.257 157.627a180.74 180.74 0 0051.077 7.337c21.033 0 41.238-3.646 60.025-10.268-.472-.771-.938-1.574-1.274-2.465l-55.571-152.231zM369.25 434.574c53.729-31.322 89.851-89.54 89.851-156.229 0-31.449-8.016-60.987-22.142-86.759.803 5.781 1.248 11.943 1.248 18.612 0 18.331-3.433 38.945-13.773 64.742L369.25 434.574zM97.58 278.345c0 71.521 41.57 133.394 101.885 162.666l-86.231-236.26c-10.051 22.499-15.654 47.362-15.654 73.594z" fill="#d33a2c"/>
    <path d="M400.386 269.208c0-22.338-8.036-37.826-14.912-49.857-9.15-14.9-17.735-27.488-17.735-42.403 0-16.619 12.572-32.076 30.369-32.076.757 0 1.543.101 2.32.161-32.151-29.471-75.005-47.478-122.064-47.478-63.163 0-118.729 32.42-151.036 81.493 4.262.127 8.238.228 11.63.228 18.906 0 48.178-2.322 48.178-2.322 9.724-.546 10.884 13.738 1.129 14.916 0 0-9.776 1.128-20.666 1.719l65.845 195.787 39.551-118.628-28.19-77.167c-9.745-.588-18.941-1.716-18.941-1.716-9.756-.59-8.606-15.462 1.149-14.916 0 0 29.841 2.322 47.603 2.322 18.911 0 48.198-2.322 48.198-2.322 9.725-.546 10.874 13.737 1.14 14.916 0 0-9.787 1.128-20.677 1.716l65.322 194.299 18.04-60.222c9.143-23.511 13.747-42.97 13.747-58.45z" fill="#d33a2c"/>
</svg>
