<svg height="512" viewBox="0 0 64 64" width="512" xmlns="http://www.w3.org/2000/svg">
    <linearGradient id="a" gradientUnits="userSpaceOnUse" x1="32" x2="32" y1="63" y2="1">
        <stop offset="0" stop-color="#9f2fff"/>
        <stop offset="1" stop-color="#0bb1d3"/>
    </linearGradient>
    <path d="M41.707 10.293L48.414 17l-6.707 6.707-1.414-1.414L45.586 17l-5.293-5.293zm-7.414 0L27.586 17l6.707 6.707 1.414-1.414L30.414 17l5.293-5.293zm1.715 14.583l1.984.248 2-16-1.984-.248zm15.375 20.857l1.617.551v5.432l-1.617.551c-.046.116-.095.233-.146.35l.755 1.533-3.84 3.842-1.535-.755a7.004 7.004 0 01-.35.146L45.716 59h-5.432l-.551-1.617a11.334 11.334 0 01-.35-.146l-1.535.755-3.84-3.842.755-1.533a7.004 7.004 0 01-.146-.35L33 51.716v-5.432l1.617-.551c.046-.116.095-.233.146-.35l-.755-1.535 3.84-3.84 1.535.755c.116-.052.233-.101.35-.146L40.284 39h5.432l.551 1.617c.116.046.233.095.35.146l1.535-.755 3.84 3.84-.755 1.535c.051.117.1.234.146.35zM51 47.716l-1.19-.405-.155-.476a6.98 6.98 0 00-.419-1.005l-.228-.446.558-1.133-1.816-1.816-1.133.558-.446-.228a6.98 6.98 0 00-1.005-.419l-.476-.155L44.284 41h-2.568l-.405 1.19-.476.155a6.98 6.98 0 00-1.005.419l-.446.228-1.133-.558-1.816 1.816.558 1.133-.228.446a6.98 6.98 0 00-.419 1.005l-.155.476-1.191.406v2.568l1.19.405.155.476c.108.334.25.672.419 1.005l.228.446-.558 1.133 1.816 1.816 1.133-.558.446.228a6.98 6.98 0 001.005.419l.476.155.406 1.191h2.568l.405-1.19.476-.155a6.98 6.98 0 001.005-.419l.446-.228 1.133.558 1.816-1.816-.558-1.133.228-.446a6.98 6.98 0 00.419-1.005l.155-.476L51 50.284zM48 49c0 2.757-2.243 5-5 5s-5-2.243-5-5 2.243-5 5-5 5 2.243 5 5zm-2 0c0-1.654-1.346-3-3-3s-3 1.346-3 3 1.346 3 3 3 3-1.346 3-3zM15 19h-2v2h2zm-4 0H9v2h2zm-4 0H5v2h2zm4 15v4c0 1.654-1.346 3-3 3s-3-1.346-3-3v-4c0-1.654 1.346-3 3-3s3 1.346 3 3zm-2 0a1 1 0 00-2 0v4a1 1 0 002 0zm7 7c-1.654 0-3-1.346-3-3v-4c0-1.654 1.346-3 3-3s3 1.346 3 3v4c0 1.654-1.346 3-3 3zm1-7a1 1 0 00-2 0v4a1 1 0 002 0zm8 7h2V31h-2zm-4 0h2V31h-2zm-10 5v4c0 1.654-1.346 3-3 3s-3-1.346-3-3v-4c0-1.654 1.346-3 3-3s3 1.346 3 3zm-2 0a1 1 0 00-2 0v4a1 1 0 002 0zm4 7h2V43h-2zm10-7v4c0 1.654-1.346 3-3 3s-3-1.346-3-3v-4c0-1.654 1.346-3 3-3s3 1.346 3 3zm-2 0a1 1 0 00-2 0v4a1 1 0 002 0zm4 7h2V43h-2zm28-22H31v2h22zm-2 6h2v-2h-2zm-2-2H31v2h18zM9 59h2v-2H9zm4 0h2v-2h-2zm-8 0h2v-2H5zm58-38c0 3.719-2.555 6.845-6 7.737V60c0 1.654-1.346 3-3 3H4c-1.654 0-3-1.346-3-3V18c0-1.654 1.346-3 3-3h14.528A8.958 8.958 0 0122 11.941C22.032 5.903 26.954 1 33 1c4.016 0 7.686 2.191 9.614 5.661A9.038 9.038 0 0146 6a8.99 8.99 0 018.774 7.004C59.264 12.856 63 16.514 63 21zM3 18v5h14.525A8.936 8.936 0 0117 20c0-1.048.198-2.053.532-3H4a1 1 0 00-1 1zm52 11H26a8.995 8.995 0 01-7.478-4H3v35a1 1 0 001 1h50a1 1 0 001-1zm6-8c0-3.309-2.691-6-6-6-.27 0-.559.024-.907.077l-1.025.153-.116-1.029A6.991 6.991 0 0046 8a7.01 7.01 0 00-3.363.861l-.958.525-.438-1A9.01 9.01 0 0033 3c-4.963 0-9 4.037-9 9 0 .114.009.227.016.339l.053.898-.667.268A6.968 6.968 0 0019 20c0 3.859 3.141 7 7 7h29c3.309 0 6-2.691 6-6zM33 7V5c-3.859 0-7 3.141-7 7h2c0-2.757 2.243-5 5-5zm22 16h-2v2h2c2.206 0 4-1.794 4-4h-2c0 1.103-.897 2-2 2zm-6 2h2v-2h-2zm-4 0h2v-2h-2z" fill="url(#a)"/>
</svg>
