<svg height="512" viewBox="0 0 64 64" width="512" xmlns="http://www.w3.org/2000/svg">
    <linearGradient id="a" gradientUnits="userSpaceOnUse" x1="32" x2="32" y1="63" y2="1">
        <stop offset="0" stop-color="#9f2fff"/>
        <stop offset="1" stop-color="#0bb1d3"/>
    </linearGradient>
    <path d="M61 29h-2c0-1.103-.897-2-2-2h-2v-8.382l1.447.724c.341.17.553.513.553.894V23h2v-2.764a2.984 2.984 0 00-1.658-2.683L56.236 17l1.105-.553A2.982 2.982 0 0059 13.764V9.562a2.998 2.998 0 00-2.272-2.911L55 6.219V4c0-1.654-1.346-3-3-3h-4c-1.654 0-3 1.346-3 3v23h-6.586a6.954 6.954 0 00-4.899-2H23v-2c1.103 0 2-.897 2-2v-2c0-.446-.152-.854-.399-1.187l1.259-1.259 2.968-7.916a2.696 2.696 0 00-3.467-3.467L17.446 8.14 13 12.586V3c0-1.103-.897-2-2-2H5c-1.103 0-2 .897-2 2v14c-1.103 0-2 .897-2 2v2c0 1.103.897 2 2 2v17c0 2.757 2.243 5 5 5h1v14c0 1.103.897 2 2 2h23.402c.769 1.243 2.115 2 3.598 2s2.829-.757 3.598-2H61c1.103 0 2-.897 2-2V31c0-1.103-.897-2-2-2zM48.847 39l-.667-4h3.639l-.667 4zm4.154-6H47V15h6.001zm3.241-24.409a1 1 0 01.758.971v4.203a.994.994 0 01-.553.894L55 15.382V8.281zM48 3h4c.551 0 1 .449 1 1v9h-6V4c0-.551.449-1 1-1zm-1.883 31.786l.757 4.543A1.994 1.994 0 0048.847 41H49v4h2v-4h.153c.982 0 1.812-.703 1.973-1.672l.757-4.543A1.995 1.995 0 0055 33v-4h2v26H39V29h6v4c0 .784.458 1.458 1.117 1.786zM33.515 53c1.314 0 2.547.508 3.485 1.424V55H15V29h2v24zM37 28.423v23.511A6.954 6.954 0 0033.515 51H19V27h14.515c1.313 0 2.546.508 3.485 1.423zM19.805 9.391l3.034-1.138 2.907 2.907-1.138 3.034zm.281 3.109l-4.5 4.5h-4.172L18 10.414zm1.414 1.414L23.586 16l-1 1h-4.172zm4.563-6.87c.44-.164.937.184.937.649a.702.702 0 01-.044.244l-.438 1.167-1.622-1.622zM5 15h4v-2H5v-2h2V9H5V7h4V5H5V3h6v11.586L8.586 17H5zm-2 4h20l.001 2H3zm6 12v12H8c-1.654 0-3-1.346-3-3V23h16v2h-2c-1.103 0-2 .897-2 2h-2c-1.103 0-2 .897-2 2h-2c-1.103 0-2 .897-2 2zm52 28H40.382l-.382.764c-.381.762-1.147 1.236-2 1.236s-1.619-.474-2-1.236L35.618 59H11V31h2v24c0 1.103.897 2 2 2h42c1.103 0 2-.897 2-2V31h2zM35 29H21v8h14zm-2 6H23v-4h10zm-8 6h-4v-2h4zm2-2h8v2h-8zm8 6H21v-2h14zm0 4H21v-2h14zm6-2h14v2H41zm0 4h14v2H41zm0-8h6v2h-6zm4-2h-4v-2h4z" fill="url(#a)"/>
</svg>
