<svg xmlns="http://www.w3.org/2000/svg" viewBox="0 0 290.627 290.627">
    <path fill="#d33a2c" d="M18.75 46.875h253.125v37.5H18.75z"/>
    <path d="M276.563 28.125h-262.5C6.309 28.125 0 34.435 0 42.188v173.438c0 7.753 6.309 14.063 14.063 14.063H93.75v23.438H70.313v9.375h206.251c7.753 0 14.063-6.309 14.063-14.063V42.188c-.002-7.753-6.311-14.063-14.064-14.063zM14.063 37.5h262.5a4.693 4.693 0 014.688 4.688v43.05c-1.472-.525-3.038-.862-4.688-.862H18.75v93.75h135.938v9.375H9.375V42.188c0-2.583 2.1-4.688 4.688-4.688zm140.625 65.625h-9.375v9.375h9.375v14.063h-9.375v9.375h9.375V150h-9.375v9.375h9.375v9.375H28.125v-75H155.55c-.525 1.472-.863 3.037-.863 4.688v4.687h.001zM9.375 215.625v-18.75h145.313v23.438H14.063a4.693 4.693 0 01-4.688-4.688zm93.75 14.063h51.563v18.75c0 1.65.337 3.216.863 4.688h-52.425v-23.438h-.001zm178.125 18.75c0 2.583-2.1 4.688-4.688 4.688H168.75a4.693 4.693 0 01-4.688-4.688V98.437c0-2.583 2.1-4.688 4.688-4.688h93.75v9.375h-89.063V243.75h98.438v-150h4.688a4.693 4.693 0 014.688 4.688v9.375l-.001 140.625zM262.5 115.027v119.348h-79.688V112.5H262.5v2.527z" fill="#333"/>
    <circle cx="42.188" cy="65.625" r="4.688" fill="#333"/>
    <circle cx="56.25" cy="65.625" r="4.688" fill="#333"/>
    <circle cx="70.313" cy="65.625" r="4.688" fill="#333"/>
    <path d="M37.5 159.375h98.438v-56.25H37.5v56.25zm9.375-46.875h79.688V150H46.875v-37.5z" fill="#333"/>
    <circle cx="225" cy="248.438" r="4.688" fill="#333"/>
    <path d="M253.125 121.875h-60.938v46.875h60.938v-46.875zm-9.375 37.5h-42.188V131.25h42.188v28.125zM192.188 178.125h60.938v9.375h-60.938zM192.188 196.875h60.938v9.375h-60.938zM192.188 215.625h60.938V225h-60.938z" fill="#333"/>
</svg>
