<svg height="512" viewBox="0 0 64 64" width="512" xmlns="http://www.w3.org/2000/svg">
    <path d="M45 27.586l-1.293-1.293-1.414 1.414 2 2a1 1 0 001.414 0l4-4-1.414-1.414zM45 35.586l-1.293-1.293-1.414 1.414 2 2a1 1 0 001.414 0l4-4-1.414-1.414zM45 44.586l-1.293-1.293-1.414 1.414 2 2a1 1 0 001.414 0l4-4-1.414-1.414z" fill="#d33a2c"/>
    <path d="M57 21h-7V11a3.009 3.009 0 00-3-3H37V7a3.009 3.009 0 00-3-3h-2V3a1 1 0 00-1-1h-8a1 1 0 00-1 1v1h-2a3.009 3.009 0 00-3 3v1H7a3.009 3.009 0 00-3 3v48a3.009 3.009 0 003 3h40a3.009 3.009 0 003-3v-8h7a3.009 3.009 0 003-3V24a3.009 3.009 0 00-3-3zM32 6h2a1 1 0 011 1v1h-3zm0 4h15a1 1 0 011 1v10h-1v-9a1 1 0 00-1-1H32zm-8-6h6v8a1 1 0 01-1 1h-4a1 1 0 01-1-1zm-1.82 9A3.01 3.01 0 0025 15h4a3.01 3.01 0 002.82-2H45v8h-4a3.009 3.009 0 00-3 3v24a3.009 3.009 0 003 3h4v6H9V13zM19 7a1 1 0 011-1h2v2h-3zm29 52a1 1 0 01-1 1H7a1 1 0 01-1-1V11a1 1 0 011-1h15v1H8a1 1 0 00-1 1v46a1 1 0 001 1h38a1 1 0 001-1v-7h1zm10-11a1 1 0 01-1 1H41a1 1 0 01-1-1V24a1 1 0 011-1h16a1 1 0 011 1z"/>
    <path d="M50 27h6v2h-6zM50 35h6v2h-6zM50 44h6v2h-6zM26 23h6a1 1 0 001-1v-1h3v-2h-3v-1a1 1 0 00-1-1h-6a1 1 0 00-1 1v1h-6v-1a1 1 0 00-1-1h-6a1 1 0 00-1 1v4a1 1 0 001 1h2v4h-2a1 1 0 00-1 1v4a1 1 0 001 1h2v4h-2a1 1 0 00-1 1v4a1 1 0 001 1h2v4h-2a1 1 0 00-1 1v4a1 1 0 001 1h6a1 1 0 001-1v-1h6v1a1 1 0 001 1h6a1 1 0 001-1v-1h3v-2h-3v-1a1 1 0 00-1-1h-6a1 1 0 00-1 1v1h-6v-1a1 1 0 00-1-1h-2v-4h2a1 1 0 001-1v-4a1 1 0 00-1-1h-2v-4h2a1 1 0 001-1v-1h6v1a1 1 0 001 1h2v4h-2a1 1 0 00-1 1v4a1 1 0 001 1h6a1 1 0 001-1v-1h3v-2h-3v-1a1 1 0 00-1-1h-2v-4h2a1 1 0 001-1v-1h3v-2h-3v-1a1 1 0 00-1-1h-6a1 1 0 00-1 1v1h-6v-1a1 1 0 00-1-1h-2v-4h2a1 1 0 001-1v-1h6v1a1 1 0 001 1zm1-4h4v2h-4zm0 30h4v2h-4zm4-10v2h-4v-2zm-4-10h4v2h-4zM17 49v2h-4v-2zm0-10v2h-4v-2zm0-10v2h-4v-2zm0-8h-4v-2h4z" fill="#d33a2c"/>
</svg>
