<svg xmlns="http://www.w3.org/2000/svg" width="500" height="300" viewBox="0 0 100 100">
    <g fill="#d33a2c">
        <path d="M41.751 59.098v6.119L20 55.789v-5.232l21.751-9.427v6.162l-15.156 5.839 15.156 5.967zM55.2 41l-6.055 24.93a30.668 30.668 0 01-.529 1.946c-.151.476-.382.849-.691 1.112-.31.268-.761.4-1.352.4-1.47 0-2.206-.637-2.206-1.902 0-.332.145-1.16.433-2.486l6.033-24.93c.317-1.326.619-2.234.907-2.724.289-.49.851-.735 1.688-.735.721 0 1.271.173 1.653.519.382.346.573.822.573 1.427 0 .447-.152 1.261-.454 2.443zM80 55.789L58.249 65.26v-6.119l15.2-5.967-15.2-5.882v-6.076L80 50.6v5.189z"/>
    </g>
    <path d="M94 6H6a6 6 0 00-6 6v76c0 3.312 2.687 6 6 6h88a6 6 0 006-6V12a6 6 0 00-6-6zm-15 4c2.205 0 4 1.794 4 4s-1.795 4-4 4-4-1.794-4-4 1.795-4 4-4zm-11 0c2.205 0 4 1.794 4 4s-1.795 4-4 4-4-1.794-4-4 1.795-4 4-4zm26 78H6V22h88v66zm-4-70c-2.205 0-4-1.794-4-4s1.795-4 4-4 4 1.794 4 4-1.795 4-4 4z"/>
</svg>
