<?xml version="1.0" encoding="utf-8"?><svg xmlns="http://www.w3.org/2000/svg" xmlns:xlink="http://www.w3.org/1999/xlink"><symbol viewBox="-0.5 0.5 42 42" id="arrow_up" xmlns="http://www.w3.org/2000/svg"><path d="M15.5 40.5h10c2.529 0 3-.529 3-3v-15h12l-20-20-20 20h12v15c0 2.439.5 3 3 3z"/></symbol><symbol viewBox="0 0 512 512" id="brackets" xmlns="http://www.w3.org/2000/svg"><path d="M448 182.059V84c0-46.317-37.682-84-84-84h-44c-13.255 0-24 10.745-24 24s10.745 24 24 24h44c19.851 0 36 16.149 36 36v108c0 6.365 2.529 12.47 7.029 16.971L454.059 256l-47.029 47.029A24.002 24.002 0 00400 320v108c0 19.851-16.149 36-36 36h-44c-13.255 0-24 10.745-24 24s10.745 24 24 24h44c46.318 0 84-37.683 84-84v-98.059l56.971-56.971c9.373-9.373 9.373-24.568 0-33.941zM64 428c0 46.317 37.682 84 84 84h44c13.255 0 24-10.745 24-24s-10.745-24-24-24h-44c-19.851 0-36-16.149-36-36V320c0-6.365-2.529-12.47-7.029-16.971L57.941 256l47.029-47.029A24.002 24.002 0 00112 192V84c0-19.851 16.149-36 36-36h44c13.255 0 24-10.745 24-24S205.255 0 192 0h-44c-46.318 0-84 37.683-84 84v98.059l-56.971 56.97c-9.373 9.373-9.373 24.568 0 33.941L64 329.941z"/></symbol><symbol viewBox="0 0 512 512" id="calendar" xmlns="http://www.w3.org/2000/svg"><path d="M452 40h-24V0h-40v40H124V0H84v40H60C26.916 40 0 66.916 0 100v352c0 33.084 26.916 60 60 60h392c33.084 0 60-26.916 60-60V100c0-33.084-26.916-60-60-60zm20 412c0 11.028-8.972 20-20 20H60c-11.028 0-20-8.972-20-20V188h432v264zm0-304H40v-48c0-11.028 8.972-20 20-20h24v40h40V80h264v40h40V80h24c11.028 0 20 8.972 20 20v48z"/><path d="M76 230h40v40H76zm80 0h40v40h-40zm80 0h40v40h-40zm80 0h40v40h-40zm80 0h40v40h-40zM76 310h40v40H76zm80 0h40v40h-40zm80 0h40v40h-40zm80 0h40v40h-40zM76 390h40v40H76zm80 0h40v40h-40zm80 0h40v40h-40zm80 0h40v40h-40zm80-80h40v40h-40z"/></symbol><symbol viewBox="0 0 512.002 512.002" id="clock" xmlns="http://www.w3.org/2000/svg"><path d="M256.001 0C114.842 0 0 114.842 0 256.001s114.842 256.001 256.001 256.001S512.002 397.16 512.002 256.001 397.16 0 256.001 0zm0 492.002C125.87 492.002 20 386.132 20 256.001S125.87 20 256.001 20s236.001 105.87 236.001 236.001-105.87 236.001-236.001 236.001z"/><path d="M256.001 60C147.926 60 60 147.926 60 256.001s87.926 196.001 196.001 196.001 196.001-87.926 196.001-196.001S364.076 60 256.001 60zm10 371.712v-19.709c0-5.523-4.477-10-10-10s-10 4.477-10 10v19.709C156.9 426.696 85.306 355.102 80.29 266.001H100c5.523 0 10-4.477 10-10s-4.477-10-10-10H80.29C85.306 156.9 156.9 85.307 246.001 80.291V100c0 5.523 4.477 10 10 10s10-4.477 10-10V80.291c89.101 5.016 160.695 76.609 165.711 165.71h-19.71c-5.523 0-10 4.477-10 10s4.477 10 10 10h19.71c-5.016 89.101-76.61 160.695-165.711 165.711z"/><path d="M169.195 125.641a9.992 9.992 0 0013.544 4.06c4.863-2.619 6.681-8.687 4.062-13.549-2.618-4.862-8.682-6.681-13.546-4.063-4.862 2.618-6.682 8.683-4.063 13.546zm-53.043 61.161l.006.003a9.949 9.949 0 004.73 1.197 10 10 0 008.813-5.262c2.618-4.863.796-10.929-4.067-13.547-4.862-2.617-10.927-.799-13.546 4.063-2.618 4.863-.798 10.928 4.064 13.546zm0 138.399c-4.862 2.618-6.682 8.683-4.063 13.546a10 10 0 0013.545 4.064l.006-.003c4.862-2.618 6.679-8.681 4.061-13.544-2.617-4.864-8.685-6.681-13.549-4.063zm66.587 57.1c-4.862-2.618-10.929-.795-13.547 4.067-2.619 4.863-.799 10.928 4.063 13.546a10 10 0 0013.545-4.064l.003-.006c2.62-4.863.799-10.925-4.064-13.543zm159.779 3.56c-2.895-4.704-9.051-6.167-13.756-3.272-4.704 2.895-6.168 9.058-3.273 13.761a9.994 9.994 0 0013.758 3.275c4.704-2.895 6.17-9.054 3.275-13.758zm53.332-60.66l-.006-.003c-4.862-2.618-10.924-.797-13.543 4.065-2.618 4.863-.796 10.929 4.067 13.547a10 10 0 0013.545-4.064c2.619-4.862.799-10.927-4.063-13.545zm-9.483-156.009l-.006.003c-4.862 2.618-6.679 8.681-4.061 13.544a9.999 9.999 0 0013.549 4.062c4.862-2.618 6.682-8.683 4.063-13.546-2.617-4.861-8.681-6.68-13.545-4.063zm-47.12-56.815c-4.705-2.895-10.863-1.428-13.758 3.275l-.004.006c-2.895 4.704-1.426 10.86 3.277 13.755a10 10 0 0013.759-3.279c2.896-4.703 1.429-10.863-3.274-13.757zm-65.941 153.597a19.828 19.828 0 002.696-9.973c0-7.373-4.035-13.82-10-17.288v-98.711c0-5.523-4.477-10-10-10s-10 4.477-10 10v98.711c-5.965 3.468-10 9.915-10 17.288 0 11.016 8.984 20 20 20l34.339 59.477a9.995 9.995 0 0013.66 3.66c4.783-2.761 6.422-8.877 3.66-13.66z"/></symbol><symbol viewBox="0 0 511.072 511.072" id="comments" xmlns="http://www.w3.org/2000/svg"><path d="M74.39 480.536H38.177l25.607-25.607c13.807-13.807 22.429-31.765 24.747-51.246-36.029-23.644-62.375-54.751-76.478-90.425C-2.04 277.611-3.811 238.37 6.932 199.776c12.89-46.309 43.123-88.518 85.128-118.853 45.646-32.963 102.47-50.387 164.33-50.387 77.927 0 143.611 22.389 189.948 64.745 41.744 38.159 64.734 89.63 64.734 144.933 0 26.868-5.471 53.011-16.26 77.703-11.165 25.551-27.514 48.302-48.593 67.619-46.399 42.523-112.042 65-189.83 65-28.877 0-59.01-3.855-85.913-10.929-25.465 26.123-59.972 40.929-96.086 40.929zm182-420c-124.039 0-200.15 73.973-220.557 147.285-19.284 69.28 9.143 134.743 76.043 175.115l7.475 4.511-.23 8.727c-.456 17.274-4.574 33.912-11.945 48.952 17.949-6.073 34.236-17.083 46.99-32.151l6.342-7.493 9.405 2.813c26.393 7.894 57.104 12.241 86.477 12.241 154.372 0 224.682-93.473 224.682-180.322 0-46.776-19.524-90.384-54.976-122.79-40.713-37.216-99.397-56.888-169.706-56.888z"/></symbol><symbol viewBox="0 0 512 512" id="eye" xmlns="http://www.w3.org/2000/svg"><path d="M490.007 217.504l-69.27-43.111C371.973 144.042 315.007 128 256 128s-115.973 16.042-164.737 46.393l-69.27 43.111C8.222 226.075 0 240.466 0 256s8.222 29.925 21.993 38.496l69.27 43.111C140.027 367.958 196.993 384 256 384s115.973-16.042 164.737-46.393l69.271-43.111C503.778 285.925 512 271.534 512 256s-8.222-29.925-21.993-38.496zM256 336c-44.112 0-80-35.888-80-80s35.888-80 80-80 80 35.888 80 80-35.888 80-80 80zM38.902 267.328C34.516 264.598 32 260.469 32 256s2.516-8.598 6.901-11.328l69.27-43.111c23.989-14.93 50.218-25.8 77.467-32.629C160.258 189.481 144 220.875 144 256s16.258 66.519 41.638 87.069c-27.249-6.829-53.478-17.699-77.467-32.629zm434.197 0l-69.27 43.111c-23.989 14.93-50.217 25.8-77.467 32.629C351.742 322.519 368 291.125 368 256s-16.258-66.519-41.638-87.069c27.249 6.829 53.478 17.699 77.467 32.629l69.269 43.111c4.386 2.73 6.902 6.86 6.902 11.329s-2.516 8.599-6.901 11.328z"/><circle cx="256" cy="256" r="32"/></symbol><symbol viewBox="0 0 491.398 491.398" id="homepage" xmlns="http://www.w3.org/2000/svg"><path d="M481.765 220.422L276.474 15.123c-16.967-16.918-44.557-16.942-61.559.023L9.626 220.422c-12.835 12.833-12.835 33.65 0 46.483 12.843 12.842 33.646 12.842 46.487 0l27.828-27.832v214.872c0 19.343 15.682 35.024 35.027 35.024h74.826v-97.62c0-7.584 6.146-13.741 13.743-13.741h76.352c7.59 0 13.739 6.157 13.739 13.741v97.621h74.813c19.346 0 35.027-15.681 35.027-35.024V239.091l27.812 27.815a32.774 32.774 0 0023.243 9.63c8.408 0 16.819-3.209 23.242-9.63 12.844-12.834 12.844-33.65 0-46.484z"/></symbol><symbol viewBox="0 0 477.863 477.863" id="tag" xmlns="http://www.w3.org/2000/svg"><path d="M460.796 0H273.063a17.066 17.066 0 00-12.066 5.001l-256 256c-6.663 6.665-6.663 17.468 0 24.132L192.73 472.866c6.665 6.662 17.468 6.662 24.132 0l256-256c3.201-3.2 5-7.54 5.001-12.066V17.067C477.863 7.641 470.222 0 460.796 0zM443.73 197.734L204.796 436.668 41.195 273.067 280.129 34.133H443.73v163.601z"/><path d="M358.396 68.267c-28.277 0-51.2 22.923-51.2 51.2s22.923 51.2 51.2 51.2 51.2-22.923 51.2-51.2-22.923-51.2-51.2-51.2zm0 68.266c-9.426 0-17.067-7.641-17.067-17.067s7.641-17.067 17.067-17.067 17.067 7.641 17.067 17.067-7.641 17.067-17.067 17.067z"/></symbol></svg>